<svg xmlns="http://www.w3.org/2000/svg" xmlns:xlink="http://www.w3.org/1999/xlink" width="8" height="16" viewBox="0 0 8 16">
    <defs>
        <path id="prefix__a" d="M4.048 6.882c1.088 0 2.8.01 2.8.01s-.062-1.83-.062-2.919c0-.606.64-1.076 1.08-1.08.439-.003 1.038.512 1.038.97 0 1.089.081 2.9.081 2.9s1.85.12 2.938.12c.594 0 1.044.645 1.035 1.102-.01.457-.451 1.08-1.08 1.08-1.09 0-2.938-.119-2.938-.119s-.036 1.705-.036 2.793c0 .647-.677 1.109-1.024 1.108-.347 0-1.094-.45-1.094-.999 0-1.088.035-2.792.035-2.792s-1.73.01-2.818.01c-.502 0-.967-.77-.985-1.153-.019-.382.63-1.03 1.03-1.03z"/>
    </defs>
    <g fill="none" fill-rule="evenodd">
        <g transform="translate(-1218 -3047) translate(1214 3047)">
            <use fill="#000" transform="rotate(-45 7.987 7.87)" xlink:href="#prefix__a"/>
        </g>
    </g>
</svg>
