<svg xmlns="http://www.w3.org/2000/svg" xmlns:xlink="http://www.w3.org/1999/xlink" width="7" height="16" viewBox="0 0 7 16">
    <defs>
        <path id="lfcrwnwnxa" d="M1.954 1.986C1.954.883 2.871 0 3.981 0c1.111 0 2 .91 1.972 2.013 0 1.104-.916 2.014-2 1.986-1.11 0-2.027-.91-1.999-2.013zm4.742 10.849c-.747.731-1.667 1.138-2.73 1.165-.517 0-1.006 0-1.523-.081-.834-.109-1.897-1.084-1.725-2.114.115-.705.291-1.224.526-1.932.236-.709.42-1.11.509-1.84 0-.082.029-.163.029-.244 0-.515-.173-.705-.719-.76-.23-.026-.46-.053-.69-.108C.116 6.841 0 6.623 0 6.434c.029-.217.172-.353.46-.407C.603 6 .776 6 .92 6h3.908c.489 0 .776.217.776.678 0 .379-.058.758-.144 1.138-.214.71-.334 1.08-.593 1.88-.258.8-.413 1.242-.47 1.702-.029.217 0 .461.057.678.087.298.317.46.633.406.258-.027.517-.108.776-.216.2-.082.373-.217.574-.271.374-.136.633.08.546.379-.057.163-.172.352-.287.46z"/>
    </defs>
    <g fill="none" fill-rule="evenodd">
        <g transform="translate(-1151 -3080) translate(1151 3081)">
            <use fill="#000" fill-rule="nonzero" xlink:href="#lfcrwnwnxa"/>
        </g>
    </g>
</svg>
